<svg  viewBox="0 0 27 27" fill="none" xmlns="http://www.w3.org/2000/svg">
<rect width="27" height="27" rx="13.5" fill="#9461FF"/>
<path d="M18.3761 17.04C18.3761 17.7067 18.2094 18.3333 17.8761 18.92C17.5561 19.5067 17.0761 20 16.4361 20.4C15.8094 20.8 15.0628 21.04 14.1961 21.12V22.74H12.8961V21.12C11.6428 21 10.6294 20.6067 9.85609 19.94C9.08276 19.2733 8.69609 18.3933 8.69609 17.3H11.1361C11.1761 17.82 11.3428 18.2533 11.6361 18.6C11.9294 18.9333 12.3494 19.1467 12.8961 19.24V14.84C12.0028 14.6133 11.2761 14.3867 10.7161 14.16C10.1561 13.92 9.67609 13.5467 9.27609 13.04C8.88943 12.5333 8.69609 11.84 8.69609 10.96C8.69609 9.85333 9.08276 8.94 9.85609 8.22C10.6294 7.48667 11.6428 7.06 12.8961 6.94V5.32H14.1961V6.94C15.3694 7.04667 16.3094 7.42 17.0161 8.06C17.7361 8.68667 18.1428 9.55333 18.2361 10.66H15.7961C15.7561 10.2467 15.5961 9.88 15.3161 9.56C15.0361 9.22667 14.6628 9 14.1961 8.88V13.2C15.0894 13.4133 15.8161 13.64 16.3761 13.88C16.9361 14.1067 17.4094 14.4733 17.7961 14.98C18.1828 15.4733 18.3761 16.16 18.3761 17.04ZM11.0161 10.84C11.0161 11.3867 11.1761 11.8133 11.4961 12.12C11.8294 12.4267 12.2961 12.6733 12.8961 12.86V8.82C12.3228 8.88667 11.8628 9.09333 11.5161 9.44C11.1828 9.78667 11.0161 10.2533 11.0161 10.84ZM14.1961 19.24C14.7828 19.1467 15.2428 18.9133 15.5761 18.54C15.9094 18.1533 16.0761 17.6933 16.0761 17.16C16.0761 16.6267 15.9094 16.2133 15.5761 15.92C15.2561 15.6133 14.7961 15.3667 14.1961 15.18V19.24Z" fill="white"/>
</svg>
